/* XPM */
static char *c0201b42a7de4c0eba26700c690bddc7Xv2syqVd3E1rzohq[] = {
/* columns rows colors chars-per-pixel */
"64 64 256 2 ",
"   c #573020",
".  c #462518",
"X  c #5C3423",
"o  c #4D291C",
"O  c #613523",
"+  c #552D1C",
"@  c #663926",
"#  c #613823",
"$  c #482216",
"%  c #6F402A",
"&  c #583221",
"*  c #502C1D",
"=  c #5C301C",
"-  c #6B3E29",
";  c #60321E",
":  c #6B3822",
">  c #522F20",
",  c #512A1C",
"<  c #4A281A",
"1  c #6A3A25",
"2  c #401E12",
"3  c #39190F",
"4  c #683C28",
"5  c #3D1B10",
"6  c #75432A",
"7  c #4D2517",
"8  c #5A3C18",
"9  c #4A2619",
"0  c #7B492F",
"q  c #856221",
"w  c #674818",
"e  c #522718",
"r  c #5A2E1B",
"t  c #432218",
"y  c #663622",
"u  c #926F22",
"i  c #815D20",
"p  c #70531B",
"a  c #5D4117",
"s  c #452113",
"d  c #70422C",
"f  c #6C3C26",
"g  c #784629",
"h  c #513116",
"j  c #593418",
"k  c #5B391A",
"l  c #8D6427",
"z  c #775122",
"x  c #67441D",
"c  c #744127",
"v  c #825829",
"b  c #622E1A",
"n  c #67331C",
"m  c #633B28",
"M  c #755719",
"N  c #6C4F17",
"B  c #562A1A",
"V  c #7E4B31",
"C  c #6A3520",
"Z  c #5F139E",
"A  c #865F21",
"S  c #6F3B21",
"D  c #2E140C",
"F  c #75452D",
"G  c #77472E",
"H  c #522918",
"J  c #580DA4",
"K  c #794A28",
"L  c #7E5921",
"P  c #876621",
"I  c #3C1E15",
"U  c #28100A",
"Y  c #311E56",
"T  c #431D12",
"R  c #5F2666",
"E  c #795520",
"W  c #704D1C",
"Q  c #624019",
"!  c #613D17",
"~  c #865E29",
"^  c #674B17",
"/  c #250C07",
"(  c #361F46",
")  c #754D24",
"_  c #502D17",
"`  c #7C4E28",
"'  c #7F5326",
"]  c #8D6923",
"[  c #804B20",
"{  c #432B48",
"}  c #251862",
"|  c #7B462D",
" . c #753B1D",
".. c #543814",
"X. c #5E1C7D",
"o. c #38235F",
"O. c #723D25",
"+. c #624416",
"@. c #6C391C",
"#. c #3C2441",
"$. c #210F4F",
"%. c #46283A",
"&. c #520E99",
"*. c #33170E",
"=. c #581589",
"-. c #6312A7",
";. c #683F22",
":. c #6D4328",
">. c #5C2B19",
",. c #553415",
"<. c #6F421E",
"1. c #6D3619",
"2. c #4C2913",
"3. c #603619",
"4. c #795B19",
"5. c #4A3141",
"6. c #946827",
"7. c #301D4C",
"8. c #382352",
"9. c #5F1394",
"0. c #3F285B",
"q. c #492C65",
"w. c #621C92",
"e. c #794026",
"r. c #82472B",
"t. c #490C82",
"y. c #9D7128",
"u. c #997521",
"i. c #3D284C",
"p. c #5A1199",
"a. c #533B49",
"s. c #321F6C",
"d. c #4B1E76",
"f. c #1F0A06",
"g. c #402411",
"h. c #A67729",
"j. c #2C1669",
"k. c #3C166A",
"l. c #2A1659",
"z. c #3C1E71",
"x. c #854D30",
"c. c #6B4721",
"v. c #5A3828",
"b. c #915130",
"n. c #915734",
"m. c #6C4516",
"M. c #4A0C92",
"N. c #452F53",
"B. c #6D3070",
"V. c #71425D",
"C. c #662184",
"Z. c #4D2755",
"A. c #70452F",
"S. c #38147A",
"D. c #724926",
"F. c #78511A",
"G. c #74441B",
"H. c #9A6C27",
"J. c #6D4947",
"K. c #A37E24",
"L. c #4A3650",
"P. c #561A72",
"I. c #451585",
"U. c #401D63",
"Y. c #5C4238",
"T. c #69189D",
"R. c #A87C2D",
"E. c #29174C",
"W. c #4F3260",
"Q. c #815133",
"!. c #4A2D16",
"~. c #895231",
"^. c #91602A",
"/. c #42252A",
"(. c #471172",
"). c #83561D",
"_. c #8F5D34",
"`. c #351D31",
"'. c #321A61",
"]. c #795346",
"[. c #331E40",
"{. c #1D1469",
"}. c #7C441F",
"|. c #70491C",
" X c #643C1F",
".X c #604525",
"XX c #5A0BAF",
"oX c #50342E",
"OX c #7E601A",
"+X c #3E2435",
"@X c #482F2E",
"#X c #634156",
"$X c #402052",
"%X c #650FB1",
"&X c #5E365E",
"*X c #B07C2F",
"=X c #502C2B",
"-X c #54137D",
";X c #956644",
":X c #885023",
">X c #2B1A40",
",X c #815851",
"<X c #4C2363",
"1X c #9D7921",
"2X c #654A35",
"3X c #795030",
"4X c #8A5723",
"5X c #551E5C",
"6X c #5B3E29",
"7X c #592C75",
"8X c #442572",
"9X c #5D2173",
"0X c #B08C1F",
"qX c #A46139",
"wX c #79562D",
"eX c #4A2827",
"rX c #A07439",
"tX c #4C1F4F",
"yX c #67403E",
"uX c #8A633A",
"iX c #B6852E",
"pX c #C58B41",
"aX c #562D55",
"sX c #A78424",
"dX c #BA7A45",
"fX c #D49924",
"gX c #9B5A5F",
"hX c #9E5A36",
"jX c #3B1651",
"kX c #613841",
"lX c #582A44",
"zX c #BD9228",
"xX c #E38A53",
"cX c #4B1C82",
"vX c #83421D",
"bX c #9F6E52",
"nX c #9E662F",
"mX c #58354F",
"MX c #221535",
"NX c #603F47",
"BX c #6B4174",
"VX c #E07E0C",
"CX c #83583D",
"ZX c #AB6D3F",
"AX c #AF6356",
"SX c #C9804B",
"DX c #B07456",
"FX c #B26A5D",
"GX c #E5B428",
"HX c #C36F11",
"JX c #C97B60",
"KX c #E48801",
"LX c #694B27",
"PX c #84496F",
"IX c #AC6313",
"UX c #9C6050",
/* pixels */
". & v.v.m O @ O.f y : O.: : : : - - m m # X ; = r   , + * & > * * * < o . < < . o < 9 o * o o < > *   * * * 9 < 9 9 9 $ s 2 $ 7 ",
"= = = r >.r = b >.b ; S S >.b : % - f d d y C : ; = B H H X X & & X * * . g.I . > < * > * 9 , 7 < , . . 9 $ $ 7 + $ 7 7 $ $ $ 7 ",
"n n y n y r >.b >.>.b C O.C n c G | | F A.% 1 # X 4 - - X & m m - % v.v.v.v.v.> v.X ;.:.# m 4 4 - d 1 # f y 3.r y = O 1 ; ; H r ",
"e.O.O.n 4 O.r.e.r.r.e.O.e.r.x.x.0 x.b.b.6 6 | 0 c d @ c.c..XLXA.;.# - A.A.A.m m :.c.z D.d A.F d d F | | f K F.k y B + 1 ; ; >.r ",
"r.| 6 O.e.b.hXb.b.hXqXn.b.b.x.^.^.n.x.~.x.r.r.r.r.V G 3XwXE z 3XwXD.A.yXd F F K ~ A q v V d V 0 0 0 V 6 K A L ;.@ O = : : : b B ",
"x.~.0 6 r.b.qXqXb.n.n.n.H.nXn.l l n._.uX~.Q.V 0 0 V v l ~ q L wXL ` mXN.g 0 F v P q P q Q.- % 0 0 F | v ] l v 6 f % 1 O.y : C ; ",
"V 0 G - ^.6.^.ZXqXqXhXn.] ^.x.y.u V ' l n.^.v v v Q.q u q P A ~ ~ Q.0.5.0 0 K P P L A v d # f 6 - % _.u u v F | f G c f O 1 O ; ",
"Q.Q.G < z K.y.H._.b.qXhXH.H.~.~.y._.~.6.~ l CX_.6._.l u ] ] A ~ A J.0.kX~.Q.~ u.~ i i ' d G 3X0 % V y.u l g x.0 z q z 6 % d f n ",
"CXCXQ.- % ^.u.u h.b.~.n.6.u _.n.6.l 0 ~ i ] a.J.6.v l u u ] l l ~ q.q.kXx.Q.] u q ] ] ~ 0 v q v V u u.l Q.| V E OXq G 0 0 V 6 y ",
"A.A.d - % d z q q ~ ` v E 4.z 6 K z |.|.W M oXi.p c.c.M M w Q ! 5.Y 8.=XO x M w w W c.X # w w Q W p w #   & ! w w j o   + &   , ",
"4 @ # X # m @ ) L 4.L z c.N p ; =X5.k k a w k 7..X+.k N N 8 h +XY '.7.I 2 !...h 8 ... 2 ..8 h h a h < t . 8 w a . $ t t t 9 9 $ ",
"m m m 4 m m 4 y ;.E P OXx ! N +.o [.eX2.8 a ! ( { ..!.8 j * + #.'.z.Y o h +.a +.w _ . 8 .Xa Q M w ,.9 9 ..^ w * $ 9 o < 9 9 . t ",
"O @ 4 - # # - - ;.|.M P W j w ^ 7 #.{ o 8 ..g.MX} v.,.,.* o * #.U.I.[., * j 8 w ,.2.& { @X,.^ p 8 h < a p a o 9 < o o *   + , o ",
"O 4 : b r r O D.F.y m.P ] x j x j %.o.%.g.U D `.j.q.# > , o o #.P.I.( , ,   Q k eX{ o.%.! M 4.N a h +.2XL.eX+ > +     &   + , o ",
"O # ; >.+ j B 3.m.! r W p Q h ! W /.j.7.U 2 = eX'.z.5.j   + =X8.-X(.( < < & k * o.} Y ..N M ^ ^ 8 Y.L.7.`.o + * o * , o o , , o ",
"e   = B H _ j   Q w = e +.w F.j Q @Xl.$.MX+ H t ( k.o.=X+ , %.$X-X5X( eXs 2.> 8.} j.( w w a a oXi.s.} /.7 . < o > j j j j , , , ",
"= B B e 7 T 7 j h j 2.T * 8 +.! ,.!.E.$.l.i.=Xo ( (.(.8.{ #.8.-X=.tX( /.. /.Y '.-X'.oXp N .X5.Y k.'.>X9 < _ k 8 a +.Q k   , , , ",
"e e e 7 7 e 7 k W F.! h /.i.+.+.Q Q #.$.(.l.( { ( 5X=.tX@XZ.=.p.p.X.{ i.0.o.8.X.=.i.6X^ Y.{ $XX.d.7.X k x ^ x a x x x x v.    > ",
"T 7 e e + H 7 H c.E +.3.h E.5.w ! ! /.$.(.P.( [.%.5XP.R &XT.-.Z 9.T.C.Z.#.%.9X=.$Xi.> 5.i.Z.C.d.Y 6XM M p c.c.|.p M M W # & X X ",
"B = O O x Q > _ + |.x Q k +X} #.Q j @XY -X9.X.aXR X.R w.Z p.Z C.C.9.Z C.R 9XX.R =X8.0.o.9Xw.8Xi..Xi E 2XL.2XM 4.4.W x # O O X X ",
"e + r   # x oX5.eX* j ..m.v.'.s.{ oX%.U.p.p.9.9.Z 9.9.-.Z cXcXz.z.z.z.z.cXw.T.w.R R d.w.T.d.0.Y.2XL.L.N.a.4.p ! h & # 8 k o 9 . ",
">.B X e , X k 7.7.`.%.6X|.m.%.S.z.7.( U.=.=.p.J Z Z =.S.{.j.s.o.o.q.q.8Xs.S.I.I.=.9X=.Z Z U.8.8.7.$XN.5.8 j * _ 8 a a x Q j x x ",
"B 7 & + , = ; #.7.lXZ.i.a.|.oXU.=.tXeXX.p.p.p.I.z.} {.q.,XFXJXJXJXxXxXSXAXgX&X} } o.d.9.-.P.> oXR w.s.%.# 4 x N p p p p p p ^ 8 ",
"; y = 1 z L 4XK { <X=.P.0.#.( +XP.w.w.J -Xd.s.{.} #XDXdXgXBXW.Z.W.0.W.BXPXDXxXSXV.j.{.z.M.X.lXP.9.z.#.k x N p M 4.N W w w x k & ",
"O @ O <.v ' ' G. X%.$X-XX.<X$XlX9X-.Z X.q.} Y V.FXbXV.U.k.E.Y.R.*Xg MXS.J I.7XbXpXZXaX} U.9.P.P.5XY Y.4.M M p LX.X5.{ & > + +   ",
": S G ` Q.6 c [ :Xf 8.lX9.%X-.-.Z -.cXs.{.V.SXDXBXS.M.-.S.2XGXfXVXKX:XE.p.Z =.I.8XgXxXPX'.R X.X.5X( Y.2Xa.N.0.8.Y ( =XB , 9 , ; ",
"F G ~ v 0 A.c }. .; +X{ R %XZ 9.T.d.} } UXAX&XS.&.XX&.J j.).fX[.b.KXHX[.I.&.J XXJ M.BXxXV.0.R w.C.<XU.U.k.I.P.{ @X X;. XX =     ",
"F G ' ~ ` y n n n b 7 8.Z.9.Z T.C.} U.ZXR.Y k.Z J M.M.M.S.[ VXr.HXKXIX>XI.&.&.XXXXJ S.&XfXB.o.R -.T.X.X.9.X.8X{ # X O ;.@ y y O ",
"y f f <.<.;. X= >.b b ( 0.w.%Xw.{.q.dXsXP 8.d.&.M.M.M.M.&.( IXVXVXHX@XE.&.Z &.J %X-.s.N.1XdXo.q.T.T.C.X.R o.#.  X X O O y 1 f f ",
"F f y f ' v z D.n 1.O o.q.T.w.{.V.fXK.u u Y.S.%XXXJ J J -.&.$Xv.- +Xl.p.-.p.Z XXXXcX} ].u zXdXs.w.-.w.R N.{ 1 @ m m @ m 4 O 4 % ",
"A.1 ; ;.L i A z O.n %.s.d.w.{.,XGXsX1Xu u q } I.&.J p.J J Z Z S.S.=.Z J &.-.&.XX-.s.0.] u u fXAXj.T.w.aXo.:.;.% X X 4 - d % % d ",
"C : f d D.A P ) 1 S %.Y Z.{.#XGX0X0X0Xu.u.u.i.j.w.J p.J XXJ -.p.%X%XZ J Z Z -.Z d.} wXu.u u u.pXq.8XB.W.NXV % G d K z ) A.d - % ",
"y >.r m & ) ) X + @.=X( [.( h.OX^ 4.p a ^ N a >Xl.d.(.(.t.&.M.t.t.t.t.t.=.t.-XU.E.oXM N w N N H.aXjXZ.+X_ o o * & x w ..h < 9 o ",
"+ + + + # m - m   = 3.+X7.N.P zXOXa ^ w 8 8 N .X>Xl.U.(.t.t.t.M.M.&.t.t.(.k.l.$.@Xw 8 a ..a ..M J.$.jX`.2 t t I I g.g.!.!.t t . ",
"X X & x x c.x  X; 3.; & eX7.} 2XsX0XP M OXN ^ p w `.$.$.l.'.'.k.k.(.k.'.l.E.`.6Xa ..+.a 8 a 8 ^ *Xi.#.( . I I g.g.!.h ..h . I I ",
"- d 4 z 4.OXp a j 9 ; @.3., `.>X%.3XR.1X~ ] u p ^ M Y.#.E.$.$.$.$.$.$.E.[.@X..N OX6.l N ^ +.N 1X0XoX7.`.s t < h ,.!.g.I 3 *.*.*.",
"+ X m E q q L k g.U U = S f  X+ t kXnX5.8.Y wXu N p N q _.V yXyX6X6X.Xa ^ p P R.,X&XJ.q 4.1XK.u 6X#.>XI t t _ h !.. t t . $ . . ",
"@ O # ;.c.:.:.m g.f.f.2 S @.g @.; h.5.Y R o.Y y.1Xq 4.N 4.p y.u 1XOXM M p M h.kXl.$.2Xu CXJ.5.+X+X/.t t . 9 ! ^ +.8 h o . 9 t t ",
"= ; O O O 1 m # _ *.U 9 = r r e L J.Y R <XY mXl Y.].u q M ] l uX;X_.i ] sXK.K.a.$X( _.W MX`./.* * < < < o _ ,.8 8 8 8 ..< t t 2 ",
"; = r @ O O - :.W +.!.* B H s r l { Z.<Xl.NXy.j `.[.7.>XP ].E.o.l.V.6.Y.a.L.y.a.<XZ.mXH.,.7 7 t * , 9 <   ! 8 + _ ,.8 a 8 * . t ",
"y @ F G V 0 3X~ i i  X  @.n b G.rXN.R z.L.iX# B   = 9 > K.L.Z.C.N.J.h.%.@Xv.u.].q.B.W.].*Xv   O - d - D.L E z ) 4 y @ @ ;.# X O ",
"O.C 0 0 G V ` L E K f  .e. .S [ ~ 7.jXj.#Xy., r +   7 <.R.Y 7XC.N.;X*Xf g - l R.N.V.B.q.#XpX6.O d d A.E q u i E :.f 4 - @ @ y O ",
"1 y y G G F 1 c 1 O.e.}.1.1.y <.6.i.$Xk.q.h.3.+ = = e i y.7.9XC.N.gXn.d - 1 - y.#Xa.].B.8XV.pXl @ 4 :.z M q ] i L ) % - 4 # O O ",
"- 1 O d V G 4 % d 4 }.}.@.1. .n l uX0.<Xj.,XA + @.= $ y.uX7.R B.5.dXl 4 F y @ ` R.L.L.&XB.7XW.rXv # :.) D.z i ] q OXE :.@ @ @ @ ",
": y 1 @ @ G F % % @ : @.G.S 1.n 3.q 5.tXz.#Xh.= @.; 7 l ].Y kXC.Z.J.R.O A.@ 4 4 A sX].L.a.B.d.&X*X:.- ) ) % - z q p M W # O X O ",
": f f f % d G F c y y <.G. .1.b = z #.5XR 5.H.3.= B 9 i uX} Y.B.9X8.rX~ O F 4 4 & E K.u.a.a.B.8XuX^.@ D.4.) @ y ) ) @ :.1 @ # O ",
"G 0 c 6 x.G g 6 % % |.L <.1.1.b 6.J.jXB.W.].4XC n H e |.zXyXi.NXB.P.W.dXv G F 1 c 4 D.u.K.a.V.d.;XH.@ D.P P i K c v K 1 - % % f ",
"| c c S c g v ` K ).L E : @.1.G.h.%.5X<X#XnX@. .1.e ; = A 0XNX'.a.X.7XmXpXL 0 g S 1 6 ) K.J.#X7XbXl % c L i i i ` G ' % @ 4 4 4 ",
": b C : % ' W ..w F.W <.: G.1.).;X[.lX&Xh.@. .vX .S O.c : K iXuX0.s.7XaX,X*Xg ~.e.r.0 F R.,XW.7XpX6.F 6 ' q v A q ` 6 ` G G - 4 ",
"% b : y j W ^ 8 j ! <.C ) [  .4XrX$Xa.;XF.b  . .: <.z g O.>.y 1X6.'.8X7X&X*XG.~.:X[ ` 4 y.;Xs.W.zXu G G ' q i ` i q ` 6 g V x.0 ",
"0 n n 9 w q l c z ).c K q ' S g *X{ J.u.>.n n 1.n G.W  Xr r B = h.yX'.d.W.R.h ; [ [ r.}.4XiXq.s.rXu F d F E i K 4 :.;.4 f f G 0 ",
"| C C |.A ] K ' ] K S A P ' | e.nX#X].6.e 1.b b r <.W  Xr ;.n b A 6.$XaXV.*X; @.[ [ }.G.@ y.bXj.CX0X` G | ` i A 6 y 1 1 f 1 % d ",
"0 C c E i ~ y z ) C ) A A ).` e.}.;X;X[ >.1.>.b [ m.m.;.S ).S C :XiX0.8XgX6.; S [ 4XV ) g c h.sXyXK.l G 0 0 ) A z f O.f f f 4 - ",
"0 f : D.l 6 @.F.O.K q i A q `  .O.4XfX . .vXvX[ F.W F.S @.i G.: K iX0.7XFX' c c ' L 0 4X:X| 6 h.R.rXK.v G V g ) ` 6 % % % F F - ",
"- 4 e.S :Xe.[ [ | i i F.L ).O.@.S n iX[  .vX .G.).A ' : c L <.n :XzXo.gX[ 4 | r.).|. .:X' g d d ` ^.h.y.' Q.V F F | G F F F F d ",
"I & c = ; y : ; f m.x k j + e + B T ).! 3 e n }.m.3.; e r m.3.7 3.H.V.` H + # 1 m.F.@._ G.<.# X O X O ;.c.:.4 # X & & & & &     ",
"  X ; , o + B r 3.x k ,.. s s g.T 3 E 2./ D 3 _ ,.7 T 2 5 g.2 3 D L y.2.5 2 !.* < h 2.s o h < t t t . . < h . . I I I I t . I I ",
"X @ ; , + B B B ; Q x j 7 7 3.,.7 $ 3.7 T 5 5 5 g.2 3 *.3 g.2 *.3 2.u Q $ + k O # , H . , + 8 < o * &   o * & > >     * o < > o ",
"* # O + r ; ; = ; |.Q 7 e $ H 2.s e e e e e e 2.h s 3 3 2 ,.k 2.< T ! <., =  X+ X # * + # & x   + *   &     &   X X X O   >   > ",
"9 e >.B + O @ O Q w = e H $ 9 . 5 2 I 2 T s s $ 2.T 2 5 s ,.h s 2 T 5 T s 9 _ $ o X * * # & Q # > *     & > >       X X # & > > ",
"r H ;   + # 4 m  Xj e 7 $ 7 $ 2 *.t 2 2 5 5 5 2 5 5 5 5 2 _ _ T 5 5 s T 2 2 . s < ,     X & & k   > * > > > > & & X m m v.X > * ",
"o . <   + & X = H $ $ e B e $ $ 2 $ 7 7 7 $ $ T 5 5 *.D 3 g.2.2 5 3 2 5 5 2 s 2 < 9 o + 9 * < ,   * < , * > * > v.&     &   & * ",
"< o 3 . , $ s s s 2 $ $ T s 2 5 3 3 5 T T T 5 3 3 3 3 5 3 3 5 *.*.3 3 *.3 5 5 5 2 5 2 9 < $ s . 9 . $ . 9 < . . * o . < * < < . ",
"D U U U / / f.U D D *.D D U U U / / U / / / f.f.f./ / U / / / f./ / U D U U D D U U U U D U U D *.I 3 D D D D U D *.D D *.D D *."
};
