/* XPM */
static char *a5487b89820c41a48fa192a07e69adccIxB4ZRXEggfYEK5r[] = {
/* columns rows colors chars-per-pixel */
"64 64 256 2 ",
"   c #462518",
".  c #512E21",
"X  c #523022",
"o  c #4C2E1D",
"O  c #442117",
"+  c #593324",
"@  c #67412E",
"#  c #492A1A",
"$  c #3E1E14",
"%  c #5C3D28",
"&  c #6F4734",
"*  c #5E3929",
"=  c #593726",
"-  c #623D2C",
";  c #6E4430",
":  c #563024",
">  c #653A29",
",  c #522B1D",
"<  c #774830",
"1  c #785834",
"2  c #644628",
"3  c #2D2F3B",
"4  c #6B3E2C",
"5  c #6B5D2B",
"6  c #83683B",
"7  c #655726",
"8  c #71672D",
"9  c #7E6338",
"0  c #4C2B20",
"q  c #51341C",
"w  c #734B36",
"e  c #603626",
"r  c #242531",
"t  c #4F3A1D",
"y  c #674A2D",
"u  c #583A21",
"i  c #7C5039",
"p  c #716230",
"a  c #7A5E39",
"s  c #7F533B",
"d  c #75442F",
"f  c #5A4123",
"g  c #1B2E44",
"h  c #29100A",
"j  c #2B2B34",
"k  c #4B4E54",
"l  c #7D4B34",
"z  c #2F150D",
"x  c #6B6328",
"c  c #8B5B3F",
"v  c #523425",
"b  c #5A4623",
"n  c #818C89",
"m  c #56646D",
"M  c #76522F",
"N  c #755B2F",
"B  c #784B37",
"V  c #83573C",
"C  c #1B2333",
"Z  c #412918",
"A  c #4E271C",
"S  c #5D6062",
"D  c #433019",
"F  c #72402D",
"G  c #695130",
"H  c #381A11",
"J  c #5A2F1E",
"K  c #1F2A3B",
"L  c #462820",
"P  c #644D28",
"I  c #52401F",
"U  c #6B5734",
"Y  c #230B07",
"T  c #87553D",
"R  c #83523B",
"E  c #676462",
"W  c #404547",
"Q  c #5E4B23",
"!  c #535A5C",
"~  c #7C8685",
"^  c #6F4E2E",
"/  c #835D39",
"(  c #8A883D",
")  c #1B354E",
"_  c #525357",
"`  c #383A44",
"'  c #814F38",
"]  c #633322",
"[  c #60442D",
"{  c #86B9BB",
"}  c #86623E",
"|  c #83763A",
" . c #4F4647",
".. c #8A938F",
"X. c #516069",
"o. c #3C2215",
"O. c #483518",
"+. c #604127",
"@. c #908140",
"#. c #8B6943",
"$. c #414E5C",
"%. c #5F6A6C",
"&. c #2B3442",
"*. c #506974",
"=. c #5F5124",
"-. c #7D7A36",
";. c #6B5529",
":. c #494A4C",
">. c #687C7E",
",. c #4F6D7A",
"<. c #5E5741",
"1. c #774E38",
"2. c #6F3C26",
"3. c #848138",
"4. c #534D4B",
"5. c #9A8650",
"6. c #3B3F48",
"7. c #496574",
"8. c #789494",
"9. c #918D40",
"0. c #8B7041",
"q. c #383439",
"w. c #2F272D",
"e. c #5B6E75",
"r. c #46535D",
"t. c #706A68",
"y. c #12253C",
"u. c #684633",
"i. c #673724",
"p. c #86B2B2",
"a. c #91CDCF",
"s. c #9F7D4F",
"d. c #4A3F38",
"f. c #76726F",
"g. c #2A3B4F",
"h. c #7C807E",
"j. c #3B5567",
"k. c #616D6F",
"l. c #5D5B5C",
"z. c #4D7384",
"x. c #755354",
"c. c #70B6C1",
"v. c #847160",
"b. c #736D2F",
"n. c #708F90",
"m. c #967349",
"M. c #846D37",
"N. c #291F25",
"B. c #957F4E",
"V. c #677876",
"C. c #8B9A95",
"Z. c #5F6562",
"A. c #637478",
"S. c #344457",
"D. c #A2914F",
"F. c #6E6849",
"G. c #779EA0",
"H. c #3B2B36",
"J. c #563C27",
"K. c #8A7C3D",
"L. c #956D47",
"P. c #7A6731",
"I. c #797433",
"U. c #171A28",
"Y. c #5C5654",
"T. c #6F8888",
"R. c #6B7372",
"E. c #737860",
"W. c #676B5F",
"Q. c #5C5D4D",
"!. c #485C6A",
"~. c #9F915D",
"^. c #79A5A7",
"/. c #8EC6C8",
"(. c #7CADB0",
"). c #796C37",
"_. c #837035",
"`. c #3F312D",
"'. c #474535",
"]. c #5C4836",
"[. c #3D3D3C",
"{. c #203D57",
"}. c #868383",
"|. c #538291",
" X c #807E51",
".X c #40606F",
"XX c #404A51",
"oX c #816560",
"OX c #5F8D94",
"+X c #7B5338",
"@X c #9CD5D8",
"#X c #8D773F",
"$X c #362925",
"%X c #A2764C",
"&X c #4A585F",
"*X c #574C30",
"=X c #92933F",
"-X c #717677",
";X c #4F5242",
":X c #6B8184",
">X c #618384",
",X c #57747E",
"<X c #A69859",
"1X c #8EBFC1",
"2X c #5C7C83",
"3X c #73615E",
"4X c #736F52",
"5X c #82A9A7",
"6X c #949158",
"7X c #6197A2",
"8X c #9DA743",
"9X c #4B3E47",
"0X c #705F40",
"qX c #54433C",
"wX c #47372F",
"eX c #727C7E",
"rX c #82A1A0",
"tX c #84774F",
"yX c #999A4B",
"uX c #4D493F",
"iX c #696F6A",
"pX c #416B7E",
"aX c #63A7B5",
"sX c #2C4C61",
"dX c #3F3A2F",
"fX c #777B79",
"gX c #8B7C65",
"hX c #444759",
"jX c #7BC2CB",
"kX c #662D3E",
"lX c #7B2434",
"zX c #9A6144",
"xX c #8C5E49",
"cX c #969F9B",
"vX c #797775",
"bX c #988262",
"nX c #BBB371",
"mX c #8D8D69",
"MX c #708078",
"NX c #85875F",
"BX c #C3B553",
"VX c #AFA871",
"CX c #336F81",
"ZX c #A0293C",
"AX c #341D12",
"SX c #9B9B6A",
"DX c #92A8A4",
"FX c #D7CC67",
"GX c #478EA0",
"HX c #B9AC5C",
"JX c #927A44",
"KX c #4D7B8D",
"LX c #357B8C",
"PX c #ACA248",
"IX c #9BA680",
"UX c #8E3849",
/* pixels */
"Z v = = * > 4 2.2.i.i.2.2.2.2.2.; 4 > - > e e ] + + . J + % + + X X . X # # X 0 . o # # , # # A . , : . A A O O           O     ",
"J J + ] , J ] J J i.] 2.F ] i.d w w < w B F d d 4 > e + : * > * = * X = o L Z o v # . = v . . A A A O O X f b 2 * O , , O O   A ",
"] ] i.i.] ] e ] ] ] > 4 < d F s s R T s i w & ; @ & w & @ - @ @ & w @ [ % - % = % * @ & - @ ; ; & i ^ P.9._.N 5 ( 6 & d > > + > ",
"d F 2.4 & s T ' c c R l ' T c c V c zXzXR ' R T i i & u.u.[ u.w ; @ & 1.w 1.u.u.w & & w w +XV 1 9 6 0.( M.P.;.u Q 8 | 9 4 i.] e ",
"l ' ' l R %X%XL.L.s.%X%Xs.%Xm.s.m.L.xXc T T T c c c s w 1.& u.1.1.w 1.B B 1.B B ' B s / } a } / V / c V s / a N N ;.8 9.#Xd i.e ",
"' c V i c m.5.s.s.5.B.5.5.<XD.5.B.s.%XL.xXc c } V s V s V +X1.s i i 1.< s / } #XB.JXm.} / 1.1.s R i R ' ' R T s M N N 3.( i F 4 ",
"l l +X& zXzXL.m.s.5.5.B.B.6X4X:.` 6.Y.v.%X#.#.} / R T T V s i T s T V 6 #XJX@.K.6 | ( 0.+X@ w i w B T R ' l < l F < < ;.=X0.4 4 ",
"s s B o < zX%Xm.m.s.D.D.tX&.K Q.4X4X3 g ! m.L.L.L.L.xXV c c R T R } #.@.5.@.M.V M ^ ;.K.@.} B i B ' T ' T l T V i l d ; -.9.< 4 ",
"c c V & B #.s.m.s.5.D.F.&.g.7X{ c.c.,XS.g 4.m.0.L.#.#.c T c V T c JXB.( _.9 M M M 1 M 1 _.9.} l ' ' R R ' / 9.| @.9.1 d | =X+X4 ",
"; 1.w 1.w a 9 6 6 _.<.g z.c.jXjX(.c.aXpX7.y.qXa G ^ ^ @ * * e : +.).b.Q y = - * * - * q . Q ).- e + e > : p Q , X b 7 , 7 8 * , ",
"& ; @ y ^ 1 9 9 6 <.U..Xc.c.c.c.jXc.aXsX>XsXU.d.G y [ [ u X X L P b.Q I $ $     0 L O o.Z # x b $   0 . L 5 b   L A =.# =.8 . O ",
"- @ & & a 6 9 a U K r.c.c.aX1Xa.^.OX^.j.OX7Xg.r ].= v J.t X = : | -.7 q X v o 0 v X 0 . o D 8 p . v X . 0 f +.. . . U = 8 b.. L ",
"> 4 w a a 0X6 6 &.) OXaXc.^.{ { 8.T.{ pXGXaX.XC `.[ % [ J.v + = 3.3.Q v : = . X . X 0 0 .   Q I.  . X . v . : X . % 8 [ ( 8 : : ",
"@ ; 1.M N 1 9 ;X) 2XaXjXjX{ (.p.{ p.a.,.*.2X2Xj.K qXy % = q X +.9.b.t q + e = : : + + + + X q I.+.0 X v = v = * : y | | ( +.. : ",
"@ @ @ 2 G y 2 K 6.OXOXc.G.n.^.(.a././.7.r.G.aXOX{.3 U y u.+.+ y 3.f t o P ).* : + : : . `.3 H.b -.U 0 L 0 X + : v ).( ( 8 : : . ",
": % 2 2 y 2 d.C KXGXz.>X5X(.1Xp.{ p.n.$.X.5X7X|..XK q.].[ % : % -.y t # o b.U : . 0 . `.K r C L =.I.p U P [ % P ).3.3.5 * : + : ",
"e + % +.u X w.` pXj.3 w.%.n.8.rXrX^.>.6.,X5XOX7X,.{.K d.G = o . ;.-.5 Q b 5 7 0 X X + r W F.U.$XX p 8 5 5 p p 8 I.b.P : : . . , ",
", X +.u 2 wX3 CXCXuXPX3.j MX(.^.5X{ G._ 7.n.k.>X*.j.) ` G [ q = [ 5 3.( -.P.[ * - * v C 9 F.j j = = ;.5 p p p 5 G u = - * e = + ",
"  o = 2 y j g.CX{.( F.I.8 XX5X^.p.^.n.>.*.>.>.2X2X7.) g.<.G +.+.y @ y p U % - [ = = L 3 m.oXY.C 3 @ e u f b b u u % @ u.d.` J.> ",
"+ u y a ].C sXCXg.=XyX=X*X! (.5X{ 1X{ G.:XV.T.OX>X&Xg ) uXP J.% u.2 y [ f 2 ^ & - - v K B.xXoXQ.K &.qX- - % u u @ qX` &.W &.`.> ",
", u 2 M wXK $.LXsXdXx '.uXC.jXa.1X{ /.{ 8.>.G.>XX.` :.g.` N Q P G G G +.P P y y % +.v 3 5.oXx.~.E.6.K q.- - - * H.C &.W tX'.r # ",
"J u G 2 w.&.!.CX.X&X*.W.p.{ p.a.@X/.{ p.8.rX^.hX9X` E.&Xg 0X=.=.=.y G y ;.P P f f f X j B.x.& tXQ.Q.<.K j * v r j Q.E.t.B.;Xr e ",
"J u U U j q.CXGX>Xn.G.p.a.a.1Xa.{ 5Xp.{ 1Xa.7.kX3 Q. XW.g <.7 =.P P P b t t t I I t q r  X#.x.6Xt.oXSXk.g 3 r 3 S gXNXx.B.;XN.X ",
"i.1 1 a &.k |.|.OXG.(.(./.p.^.G.^.1X/.a.p.!.kXH.g. XE.m g wXI t I I f f f 2 % ;.;.P f r W.s.x. XE x.NXE.! :.:.E oX Xv.x.D.6.L + ",
"- U 1 G 3 _ 7.m A.:XrX8.rXn fX~ n DXp.n.!.kXkXC ;XF.Y.4.&.wX2 I b Q f +.y [ f Q b I q N.W JXx.tXl.x.5.4X3XNX3X3X4X Xx.c  XC . e ",
"F +X#.1 3 .XCXm }.m OXa.@X@X@X@X@X/.|.hXUXkXC XXA.R.MXe.{.'.N =.=.Q Q f P 7 7 5 7 7 P wXq.D.v.5.3X3X<XoXgX5.x.v.6Xv.x.s.XXN.: e ",
"i } 0.a q.!.GXsXkXUX9X7.GXaX7X|.pXhXkXZXlXK .XG.8.X.V.e.) d.7 Q =.Q 7 7 =.Q 7 x x 8 x *Xj tXv.~.oXv.6Xx.yXv.v.SX6XoX%XE.y.L - * ",
"i #.0.a q.$.,X,.w.O lXkXH.H.kXlXlXZXlXH.g $.G.a.@X>.Z.,.) [.7 7 7 7 x 5 5 P ;.5 x b.8 U 3 4XbXtXbXmXgXgX<XoXmX6XoXzX~.{.w.< w 4 ",
"4 9 9 G 3 $.,Xk.Y.q.w.A lXZXZXZXkXH.y.sXm ! (.@Xa.k.S ,X) dX8 7 x x x x x 5 G 5 5 5 7 U 3 <.5.v.<XSXbX5.v.gX6X3XxXD.$.C N } & d ",
"< w a U 3 r.|.,.e.%.k g.g &.3 ) ) sX*.:XX.&.>.G.n.S NX>X) '.8 =.x x 8 8 8 p 7 8 5 7 7 5 [.` <XmX~.<X<X~.bX~.v.v.D.k C y 9 & ; d ",
"B w a U K r.z.pXe.m e.,.!.z.z.KX7Xz.NX6Xn ! ) *.m %.E.MX{.'.P.7 x 8 p 8 x x x x 7 7 =.7 *XK E t.3XW.tX6X~.bXs.~.W j N 9 a B w < ",
"4 & 6 U y.r.KXpXV.MXiXm 2X/.@X@XG.sXyXVXVXIXW j.8.2XR.mX) '.I.b.-.I.8 b.b.P.p x x 5 =.P 7 j hXf.vX~ :X%.3X~.E.g 3 M.6 9 i B & & ",
"> + 2 U 3 hX! XX:.W.E  .l.n.8.n.4.g p ].0XF.qXj ! S W 4.C dX=.b I t I I I J.% f I O.D O.$Xr  . .:.! k W [.[.U.$XN U y u X . . . ",
"+ - y a [.g.S r.6.Z.%.X.! 8.n.k.` &.| F.<.I.0X&.W 4.d.uXC D O.t O.D D O.$XN.N.D Z AXAXD U.j [.`.`.`.q.[.) U.u b D Z o.o.  L 0 0 ",
"- @ - N *Xg j.r.$.r.XXS Z.X.m 6.k g.-. XE | | &.:.d.'.:.C D O.O.O.O.O.I r q.r r Z o.D w.r q.[.4.4._ XX$.y.N.t #   0 o v o # L o.",
"& 1.& 1 N g S.r.X.6.! >.~ S k eXvXS.Q.yX4X X( K :. .;XuXC w.O.D t O.D D r 8 *XU.Z D j C 6.W  .4.d. .W g U.b f 0 X o Z Z o.AXAXAX",
"= @ @ 1 6 dX{.&XW j j ,XrX~ 3Xt.f.R.) 4X6XF.Q.&.W.l.uX*X` U.t O.D D O.$X'.@.K.j r j C q.9X .d. . .:.S.U.$XJ.v o o o D # o 0 0 . ",
"@ @ @ u.9 G g !.XXC U.r.n.A.}.iXE -X_ ) F.PXW XXf.Y.k ;X<.r r dX'.I `.K b.8 '.r r &.6.:. ._ ! ! _ $.K j ].f % % t t u X . . L L ",
"i.4 @ ; N 9 &.S.&X3 N.k m A.eXiXE l.E l.S.4X6.S iX! XXW ;XW 3 K r j K j [.&.` ` 6.W k 4. .E V.X.k g.y.d.*Xf u f t t 0 L L 0 L L ",
"i.e e & M 1 dX) &Xr.! Z.4.T.8.rXn l.t.t.k g k l.l.W.XX*X5 0X_ r.k k W 4.:.$.$.&XS S _ E _ _ Y.9Xk K q.[ 2 +.J.u q o % y % . 0 # ",
"> 4 d 1 6 #.1 &.$.,X2X>.X.T.1X/.{ k.h...h.iX~ ~ %.S ! Z.W.E.S 7.,.e.m V.iXZ.%.vX..h.n C.k.E S m S.` 0XN w ; 2 @ a #XK._.M.9 > > ",
"d F ' } #.m.0.q.{.7.|.|.*.eXG.{ rXm W iXh.eX}...1XDXk.%.A.m *.*.,.*.e.e.>Xn DXgXvXn ..eX..n *..Xg Y.6 1 ^ M M @.8X9.1 ; & @.^ > ",
"F 4 4 V #.6 0.<.y.S.j.KXj.>.A.m m %.W.n C.k.t.../.a.5XR.8.>XV.R.>.T.n h.T.8.}.}.cX..-XMX~ %.,X{.W a 1 +X1 1 @.8X( M ; ; > K.^ e ",
"d ; @ w V / a 9 r g.hXj.j.V.T.~ %.iX~ 8.DXn S f.C.5X>.-XrXT.8.fXfXn n fX-Xe.~ C.cX~ V.A.m 2Xj.g k qXqX].1.1 =XyX9 ; & a | _.4 > ",
"i.4 & & ; V 6 M.d.g :.!.7.S V.V.Z.t.R.A.n >.fXt.t.S S vX-X>.:X-Xf.R.-X..p.rX%...T.n ~ 7.*.*.g &.uX;X<.` ].6 yX=X1 ^ ; @ ^ - e - ",
"2.F < < i / 0.} ` ;XF.hX,.m l.Y. .E iXR.E E n h.f.t.t.n Z.l.vX~ }.C.~ ~ DXA.eXC.n V.j.!.*.S.<.D.HXBXD.3 [ 9 8X3.1.w ; ; 4 4 > > ",
"l R i i c 6 6 i y.mXSX! $.,.X.Y.S Z.%.T...t.-Xn h.t.f.C.C.n -X}.n ~ eX~ -X}.C.eX:Xz.,..Xr.F.PXVXVXgXj d.V } 8X9.B s i & d < d ; ",
"l < d d R } L.1.g IXVXmX:.k X.*.k.! S A.R.~ h.-XfXE fX~ ..}.f.f.E S vXh.....n e..X,.7.hX .0.~.<XB.[.J./ +X1.3.9.V +X< F 4 4 4 @ ",
"2.] V 0.M.#.M Z g E.BXnXNXk _ ,.,.4.l.S :X/.5XC.....cX~ n ..cXcXh.C...eXT.>.X.*.KXe.$.<.D.HX<X<.3 G 6 a M / M.8X#Xs d d d < 2.4 ",
"F ^ | M ;.M.^ v r <.BXHXSXW.S.7.z.X.X.%.MX{ jXn.h.n ..cXh.f.t.R.n 8.:XV.|..X7.E m $.y.<.F.uXdX].1 9 a 1 } } V M.9.#X0.l l ' ' l ",
"l M ; A y @.#.l 3 iXFXnXnXnXW {.!.k r.X.! A.:X%.E S ! _ Y.l.S Z.k.&Xj.,.z.*. .9XS.y.wX].*XU 6 6 JX@.@.0./ 1 < 4 p _.N 1 F B s R ",
"< 2.F ; V #X/ c H.Q.BXnXFXFXbXg ) :._ _ :._  . . .k _ _ Y.k.m X.m z.pX!.>.E 9Xg C ].P.P.M._.| 9.K.9 _.( @.l < l F M.6 a / d B B ",
"l 2.< d / 6 y < wXQ.BXnXFXHXX.H.v 3 6. .qX4.9X4.e.! _ &X,.z.m z.|.KXpX%.l.g.K q.0XM._.P.6 @.yX| ^ N 9 1 @.#.< i < 1 ( 9 K.+X; ; ",
"l ; F B 0.M +.< 3 E.FXVXHXZ.y.2./ - H.w.` 9Xk _ Z.E A.%.m z.,Xe.e.!.$.g.y.K d.0Xp N 9 9 D.8X9.M._.p N ^ 6 @.' 1.' V #XK.@./ d d ",
"; ; l +X#.< < l g yXBXtXQ.K @ M ^ F M 2 `.w.w.j 6.k k k $.hX6.6.g.g j w.wXU 6 N N P ;.| 8X8X| p ;.^ M M } JXR i i V #X| =X/ d < ",
"$ + d ^ @ > > = j P.<.q.N.A u q q o q q   # v `.N.N.N.N.w.w.$X$X$XD 2 y 2 Q 2 2 b Q u 7 -.-.+.q u % +.- G M ; - e * ;.P I.2 . + ",
"X e > N % q q v 3 ` r o., 2 Q t u # o.o.z z o.q u J X #   # #   # q I t O.O.t f t O.D =.-.b.Z Z Z Z 0 . J.o L 0 $ q =.b I.q $ $ ",
"+ 4 > N y : + X H.L J 2 8 p ;.;.5 5 u , # o.H z AXo.o.o.Z Z o.H o.Z Z Z o = % +.+.u X f ( ( % D O.v - - v . v = : p ).I.5 A X 0 ",
", @ 4 y P.e 4 > e ] y p 2 A A O A p ;.J + : ,   O $ $ o.Z o q # o #   o * > * q % @ + * 3.=Xp + q t % - * * - = - 3.3.-.% , : X ",
". J e + P.6 w ; - y ).- : , v o H b b O L           # o o o o         A 0 0 . # X - = : G -.3.9 * X u J.% = : + ).=X-.^ > + . X ",
"J , e * - 9 K.K.K.).% , . A ;.P o.8 t O O O O O $ O       A A   O O A O     # 0 X + * * - [ p ( | u.= o X % 0X( 9.5 u.@ - + X . ",
"#   # + + : * 2 u 0 A + e : = 5 7 b , . , A A   $ $ H H $ $   O $ $   O $   #   X X X + X = . f 8 -.8 p ).3.-.5 % + + : + + + . ",
"# o H   X   O   L   A ,   # O $ $ $ O   O O $ H $ H $ $ $ H H H H $ H H H $ O O   $ $   # #       # q I b I Z O 0 0     . o #   ",
"z h h h Y Y Y h z z z z z h h h Y h h Y Y Y Y Y Y Y Y h Y Y Y Y Y Y h z h z z H z h h h z h h z H o.H h h h z z z z z z z z z z "
};
