/* XPM */
static char *a7cbbcdb45604e40f489e108be9c3926zcNeq520u980Rnde[] = {
/* columns rows colors chars-per-pixel */
"64 64 256 2 ",
"   c #5C354F",
".  c #4F2B3E",
"X  c #573247",
"o  c #552F48",
"O  c #623950",
"+  c #663C53",
"@  c #64395B",
"#  c #673C5A",
"$  c #633854",
"%  c #603654",
"&  c #48252F",
"*  c #4B2937",
"=  c #5F3857",
"-  c #60354D",
";  c #472536",
":  c #522D3D",
">  c #5A344B",
",  c #502938",
"<  c #693F56",
"1  c #683E60",
"2  c #522D42",
"3  c #563042",
"4  c #502A30",
"5  c #5E374F",
"6  c #42212D",
"7  c #95601F",
"8  c #59314A",
"9  c #4C293D",
"0  c #886017",
"q  c #5D3214",
"w  c #683816",
"e  c #8E511C",
"r  c #AD7E0F",
"t  c #643A57",
"y  c #673C61",
"u  c #7C561A",
"i  c #3A1C24",
"p  c #5C324D",
"a  c #965A1B",
"s  c #613514",
"d  c #6C4368",
"f  c #5F3546",
"g  c #6F445D",
"h  c #835724",
"j  c #4C2140",
"k  c #663A4A",
"l  c #99631F",
"z  c #562E32",
"x  c #562C39",
"c  c #563213",
"v  c #683D72",
"b  c #6A4715",
"n  c #663C67",
"m  c #411F24",
"M  c #623C5E",
"N  c #8F6020",
"B  c #6A4064",
"V  c #462035",
"C  c #4F255A",
"Z  c #876225",
"A  c #9F7216",
"S  c #5A3454",
"D  c #5C3243",
"F  c #A97D2C",
"G  c #6B405C",
"H  c #92641E",
"J  c #8A5C1D",
"K  c #512649",
"L  c #C49D55",
"P  c #220B08",
"I  c #9B6E26",
"U  c #29100E",
"Y  c #57324E",
"T  c #714247",
"R  c #815C1C",
"E  c #78481B",
"W  c #6D4222",
"Q  c #956824",
"!  c #936812",
"~  c #9C783B",
"^  c #845A12",
"/  c #62343E",
"(  c #825E31",
")  c #5F375C",
"_  c #86541B",
"`  c #573326",
"'  c #7A4D22",
"]  c #703D16",
"[  c #724A20",
"{  c #814F1C",
"}  c #431A4E",
"|  c #4A2723",
" . c #592F44",
".. c #A6842A",
"X. c #683D4E",
"o. c #2E1415",
"O. c #6D4253",
"+. c #643C12",
"@. c #8F581F",
"#. c #A97912",
"$. c #634117",
"%. c #976B1D",
"&. c #3F1157",
"*. c #643962",
"=. c #663B3F",
"-. c #6C3F41",
";. c #664133",
":. c #8E551D",
">. c #8D6411",
",. c #3D1838",
"<. c #9D7B32",
"1. c #A37424",
"2. c #BF9654",
"3. c #97721E",
"4. c #AF842F",
"5. c #684828",
"6. c #AD8B28",
"7. c #35181F",
"8. c #693B31",
"9. c #6A4014",
"0. c #7A4317",
"q. c #755131",
"w. c #441B41",
"e. c #A57511",
"r. c #6F4672",
"t. c #8D6620",
"y. c #34470D",
"u. c #987528",
"i. c #58323C",
"p. c #421B2F",
"a. c #6C4076",
"s. c #71443B",
"d. c #A17F2A",
"f. c #9F661B",
"g. c #975616",
"h. c #39320B",
"j. c #965114",
"k. c #613744",
"l. c #552D12",
"z. c #5D312E",
"x. c #8F6D23",
"c. c #532C27",
"v. c #4D2C45",
"b. c #4D2711",
"n. c #5D3835",
"m. c #492149",
"M. c #884D1C",
"N. c #915D25",
"B. c #996D12",
"V. c #304F0C",
"C. c #A17925",
"Z. c #0BB428",
"A. c #3D1B1A",
"S. c #482326",
"D. c #8F6E2E",
"F. c #603235",
"G. c #854918",
"H. c #904E16",
"J. c #0AA320",
"K. c #714869",
"L. c #8A623E",
"P. c #50256A",
"I. c #5E4F12",
"U. c #CFA82F",
"Y. c #B9911C",
"T. c #0EBC29",
"R. c #0CAA23",
"E. c #2F9924",
"W. c #08C427",
"Q. c #177617",
"!. c #895718",
"~. c #4F4E16",
"^. c #4B1D53",
"/. c #B49032",
"(. c #745019",
"). c #A98539",
"_. c #BB9244",
"`. c #B8972B",
"'. c #481B61",
"]. c #A47F3B",
"[. c #795117",
"{. c #8B6925",
"}. c #0D831A",
"|. c #4C2E0D",
" X c #39123A",
".X c #8B6935",
"XX c #3C1144",
"oX c #C29A2E",
"OX c #CAA43A",
"+X c #9D5F1A",
"@X c #1C6A16",
"#X c #7D5B27",
"$X c #197D1B",
"%X c #435A14",
"&X c #5F3927",
"*X c #532C59",
"=X c #585A1D",
"-X c #76691F",
";X c #B58B48",
":X c #416E1C",
">X c #815842",
",X c #C29A3F",
"<X c #C39712",
"1X c #C9A224",
"2X c #28A92C",
"3X c #A27E1A",
"4X c #B48B35",
"5X c #D6B024",
"6X c #4B410C",
"7X c #21580E",
"8X c #0A9520",
"9X c #129B24",
"0X c #754954",
"qX c #5B3819",
"wX c #B0861D",
"eX c #05CC31",
"rX c #5C3061",
"tX c #7B552A",
"yX c #98713A",
"uX c #90652F",
"iX c #744D88",
"pX c #323D0C",
"aX c #6A4D13",
"sX c #442211",
"dX c #358B26",
"fX c #1E8C1F",
"gX c #6A3B1B",
"hX c #754B38",
"jX c #5A3B12",
"kX c #B69253",
"lX c #4B6821",
"zX c #336515",
"xX c #29841D",
"cX c #6B5515",
"vX c #5A7922",
"bX c #2DB92B",
"nX c #734B6F",
"mX c #183F08",
"MX c #817620",
"NX c #CDA858",
"BX c #5B3176",
"VX c #D5B04C",
"CX c #A07B14",
"ZX c #116112",
"AX c #686318",
"SX c #4F8E22",
"DX c #3A781E",
"FX c #4D821F",
"GX c #32102B",
"HX c #5F2913",
"JX c #867739",
"KX c #653989",
"LX c #E7C12D",
"PX c #1AD738",
"IX c #7D851C",
"UX c #68A028",
/* pixels */
"sX` ` ` &X&XgXgX8.z.k.*.@ ) @ @ t < t O = % % p p 8 o 8 3 i.i.z z z 4 4 * * : . : : , 4 z 4 4 4 z z i.3 3 : . : : . . * S.m & 4 ",
"` D D f z z.z.F.x D p @ @ D D $ # t @ < G # t y M t %   p S %   >   o o v.9 ; v.> o X i.: 4 x 4 : 3 . . 2 . , 2 8 9 2 . , | S.| ",
"- / k.- O  .o - D D f $ *.$ - y g r.iXr.v P.'.P.C C *XrX) M B 1 d d M O 5 5 > >     O < O t + t # 1 ) % y %    .@ p ) *.% - c.` ",
"-.=.$ - + # v y n n n *.n n a.iXnXBXP.*X+ L.~ ..CXZ f D m.m.C *XC rXn d g K.G O.G 1 < O.< G < + # 1 B n @ y %  .%  .8 @ % % z z.",
"T 1 n *.*.v v v v a.a.a.v a.iXBXC L.L ,XU.5X1X1X<X<XwX1.Z ' ;.hX;.n.k.8 *X*X*X*XrX*.n d nXK.nXK.K.K.g y y 1 + O O -   @ k k / c.",
"g d B n v v a.a.a.v d r.iXKX'.>XU.VXU.4X4.4.;X;X_.4.).F F F 1.1.A 1.A %.%.H tXhX;.k.D o *XC *X) n v r.r.K.K.g y t y @ y k.=./ F.",
"0XG G M v a.v d K.a.iXiXv C _.LXOXL L 2._.;XL kXkX2.2.L ;X;X4X1.F F F wX4.#.r r r #.A Q h W 8.k.2 m.K C rX*.n K.1 1 y @ k.=.O f ",
"0X0XO.o *.a.a.a.g a.iXKX% U.5X2.;XL NXL NX2.L kX2.L L 2.2.L 2._.2.;X2.L ;X_./.4XkX;X4.1.I C.#.F F ].yX>X-.j } C n r.y 1 k X.*.- ",
"0X0X0Xt M B v a.r.iXa.^.U.5XNXVXVXNX_.L L _._.kXkXJXkX2.L 2.,XNXL L OXOX,XVXL L L L 2._.,X,X4.wX<X5XU.1XOXoX~ -.} n r.B B g n k.",
"-.O.+ @ # < # G 1 d &.yX5XoX5XOX`././.).<.4X].].lXFXAXD.~ D.{.R Z D.u.<.d.d.<.<.~ L.L.( ( ( yX`.CXu 5.n.&X[ #Xx.n. Xo 3 : 3 3 4 ",
"=.t O 5 O + t + d P.K 5X`.1X1X..6...<.( u...~ JXFXPXdX<._.).yX.X.XD.u.D.Z u Z Z ( q.5.5.q.<.6.[ ,.,.& & & *  Xz.3.4 j v.* 2 . & ",
"k + O k O t t $ t &.yXU.`.Y.6.wX6.{.x.Z u.d.6.-XE.Z.R.MX).d.].].~ )./.).~ ~ ~ D..X( ( ( /./.j XX,.v.;.5.5.5.;.,.u u j Y . 2 . & ",
"/ O k + 5 5 + < *Xo oX4X`.3XC.d.u.........3.{.%X2XUXbXdXF ....).yX<.<.~ L.<.<.<.{.Z ( L.Y.z.V $.c.6 ,.,.w.n.5.z 4 >.4 Y 5 X o 4 ",
"f t $ - p p $ d } L.1X,X1XwX%.C.d.6./.6.t.cXcXDXbX6.UXR.MXr 3X<.../...d.~ /.`.3Xu.].~ <.R w.;.(.$.q..X.Xq.9 n.5.* ' ;.*X= 3 o : ",
"- 5 -  . .: D S j Y.u.u.3XR R 3.Y.wX6.CXcXx.MXE.bXY.`.eX:X3X6.].6.6.d.d...`.6.d.)...<.B.j ` b $.yXOXx.u x..X9 5.* &XW K S o o o ",
", p p  .2 . X } s.U.( #Xt.R D.Z 3.3.0 cXaXx.AXE.SXR MXT.Q.-X<.u.d.6.....u.....).d.x.A W ,.$.jX{.`.(.$.$.jXZ =.` z ` 9.j S o o o ",
"z.x x 4 4 S.4 ,.[ 3.` qX[ b ' q.tXR aXb.5.#XzXT.dX:X=X2XfX~.D.D.u.d.C.C.u.{..XD.JX-X! w.` b b `.[ 9.b $.qX[ =.` 4 &X[ ,   X 2 : ",
"4 , x 4 , x i.XXuXY.q.$.[.h #X#X#XZ R h.pXQ.R.W.W.eXeXeXT.lX~.#XD.D.x.-X-X=X=X=X%XAXJ ,.b $.R d.4 &XW (.(.tXi.&X* [ [ K 5 > X X ",
"S.. x x x : X  XuXY.b +.[ [.( Z R u ~.mX8XW.E.vXFXvXSXSXT.PX2X:XlX:XDXxXfXdXE.dXy.>.0 V (.5.C.~ , n.j . [ ;.. 5.9 J =.K n 5 5 5 ",
"z D - - -  .2 ,.{.<Xu $.9.b b b [.aXV.8XZ.vXa 7 l 7 N.N.#XDXZ.eX2X2X2X2XE.2XeXQ.I.#.CX, u [ C..X: #X5.;.;.. ;.n.8.%.K S 1 % %   ",
"4 x  .D D D : ,.#XCXy.@X$X$XfXdXE.DXR.T.{.l Z R Z ( tX0 Q l D.Z.eXvX-XQ I bX$XI.H #.A : R u R ( 9 tXq.q.q.q.;.V ^ W w.Y X : . & ",
"z z   x : X    X5.A 6XQ.W.J.xXE.R.J.R.lX{ u u Z {.x.t.3.I 3.1.MXW.Z.=Xx.bXJ.~.I t.B.! XXn.(.(.( i.& ` n.n.: z 0 tXV v.= > X f ` ",
"c.,   3 : 3 5 } q.Y.E y.}.T.u H.I.V.xXR 0 H >.cX=XV.V.V.=X-X{.f.MXT.dXxXR.y.aXZ u ^ R w.} w.8.h ~ q.i.n.;.' 0 hXK o = 5 f > : | ",
"F.O p t # < 0XP.T 1X[.b y.fXJ.AXpX}.E.a ^ cXV.$XJ.R.R.8XQ.7Xy.~.{ :XT.Z.zXI.%.%.%.B.! j M S j V F.>X>Xq.q.;.. m.S = > X >   i.z ",
"i.n.f   O.X.O.K x 6.^ W b y.fXR.:X9XvX:.I.7X}.Z.R.$XQ.9X9X8X9X@XI.-XT.E.~.u h h (.b u 6 v.5 > o K j K j j m.K   = X X X o 3 z i.",
"O 8.O.G G @ t @ K /.#.H 1.cX%XbXW.W.IXR ZXJ.SXT.}.mXpXE.bX! FXZ.:X=XW.$XI.A I I ! ^ >.z.*XM p   = = M ) = M )   8 8 > X X , x   ",
"T T g 0Xg G # d &.uXY.J l f.I.%X2XW.FXV.J.IXg.R.R.V.zXT.SX+X+X-XzX%XeXQ.I.l %.f.f.f.! W ^.M o       % = S S       5 5 >   p z D ",
"T T G g < $ p $ m.x CX!.M.:.f.I.7XW.E.y.zXAX[.vXW.Z.Z.J.lX=X%X~.aX0 W.@XI.l J +Xa f.l ' ^.B O - $ $   p % -   >       % $ $ k./ ",
"/ k @ $ $   % 8 x XXL.^ 0.H.a f.{ fXT.@.aX6XV.V.V.V.y.6X6Xb ^ l +XR Z.7Xb @.M.j.a l @.h j ) < O < # + 5 5 O   X 5 5 5 $ @ @ @ + ",
"T + $ # G G y # M w.T oXH.j.H.g.j.=XT.vXH.l a !._ E b j.H.j.H.J g.-XZ.y.u a M.j.a +X7 N F.C d # # + + O O + O O O O O O t O O # ",
"O.t % t t # G @ M 8 XXF #.G.M.H.g.0.xXT.e j.g.g.g.{ I.e e M.M.a f.2X9X6X{ @.e H.e :.J J ' ^.1 < + + O O + # O #     + + < -.-.X.",
"k.$ # < t G G # = B w./ 1Xg.G.j.j.j.~.}.E.:.G.e e e I.:.g.:.a +X3.eX9Xy.(.7 :.e e M._ N %.x C g < < G g g G # < < < < < O.< X.-.",
"/ x i.k.X X.k D 3 5 > ,.R [.q s c s h.mX}.$X~.s s ] h.c ] 9.9.w %X}.}.V.h.$.9.gXgXw w +.$.qX X; 9 2 . * * * . 3 X > X * * * . : ",
"3 8 8 p = + X.O X 2 = m.n.3Xq s s q pX}.@Xy.xX:XHXHX|.l.b.HXq lXxXy.Q.$Xh.|.c l.l.l.b.c |.$.c.GX6 i m 6 ; * 9 ; m i i 6 ; * * | ",
"    > -   O     > X o > w.#.!.s s +.y.8X%Xb.zX8X:X~.%X~.~.lX$XJ.$X6X%XJ.y.h.qXs c l.q c c jXaXi ,.. 9 . 9 & 6 ; 6 ; * . . . ; 6 ",
"+ < $ $     o 2 o 9 o = m.;.B.] 0.jX7X8Xb :XJ.zXZX@XQ.@X@X7XV.ZX}.fXDX9X@Xh.c +.q l.q q 9.+.b qXGX,.9 ; ; 9 . . . * 6 6 6 i i i ",
"8 k.k.+ # # + 2 ; o.o.3 ) ^.C.E ] 6XQ.fXdX9XZXmXh.h.h.|.|.|.c jXpX@X}.J.9XpXjXb w q q l.l.s c $.qX Xm.. ; * * & ; ; * 9 . . * 4 ",
"= k.k.% O X.< O ; U P 6 # &.s.A w y.8XZ.8X7Xh.jX] s w s w q w +.b |.pXQ.Z.Q.s $.+.q s q q w +.9.(.W  Xv.Y v.2 3 2 2 2 2 2 2 * & ",
"D / % = = @ + 5 . 7.o.; X C w.3.0.7XJ.ZXh.|.] ] w s q c q l.s 9.+.w w c 7X@X6Xb +.q w w s ] 9.b [ u &X} Y o 2 X 9 . * 9 & & & S.",
"F.D S = % % + +   2 * X 2 v.XXh [.mXmXh.gX0.] w w w q l.q w w W 9.E ] ] s h.pX9.E w w ] w w w s W [ R V K 5 X : : : 4 c.c.| | S.",
"/ k O.T O.g 0XO.X.+ S p % ) '.-.A 6XaXN.@._ @._ E 0.] ] 0.G.0.{ J N.N.@.!._ { e e e e :.e { { ' { h B.hX} # O 5 5 5 5 k.- - f F.",
"8.8.s.T O.nXK.d K.r.B = ) d P.K 3X[ |.[.J a _ { !._ E 0._ !.:.@.7 l Q l f.f.f.@.a +Xg.a +X7 :._ _ N.A I &.n 1 @ # # M y @ t $ k.",
"k / k.G G G B a.P.'.P.v M n BX&.%.>.$.u H _ { u J _ !.{ !._ !.@.7 7 7 l 7 l l a l 7 N.7 N.N.@.:.N J H r K rXG + t t + -.=.k.f / ",
"X.k % < g K.v '.L.].T '.P.@ *.&.0 e.>.0 >.H ^ 0 t.J _ 0 >.' _ N _ 7 7 l l 7 l 7 %.f.7 l l 7 7 N.H N J #.F.'.g + # # + X.k $ t k.",
"=.% @ t M nX'.s.LXU.OX].f } '.&.0 ! 0 0 ! ! 0 u 0 >.0 0 0 R H !.E J N N Q N N Q H H N N H N N.7 N H 0 r tX&.G t t $ = = = = f n.",
"k k @ @ B d &.].5X1.C.oXOX~ =.,.V c.W ' ^ ^ >.>.^ ^ 0 >.(.u ^ { ^ 0 0 ! %.%.Q %.! H H H t.x.Q 7 7 H J wXI &.1 @ @ t $ O t O / n.",
"O.O.y 1 K.v &.4XoXF 4.4.C.4X4X<.yXs., j K j x s.z.z 8.[ ' ^ >.^ ! ! B.! ! C.#.e.A %.Q I 3.3.u.I %.Q %.Y.F &.d y y n # k -.-.-.=.",
"T # @ @ d d &.~ 5X4XF F I Q Z uXu./.`.oX).~ .X>XhXz.2 j j j K / [ u H 0 Q A e.e.B.0 N t.Z Z Z Z Z t.x.r ( } g T s.s.-.8.8.8.8.8.",
"=./ $ @ B d XXqX<X{.( F 4.F 1.I Q W Z C.1.4.`.oXoXoXU.U.OXF L.-.f  .K C C rXrX0X( A A %.t.t.t.Q x.I 3.Y.T '.d # T s.-.-.s.s.=.=.",
"X.F.$ ) Y 1 m.V CX[.' I 1.f.1.4.F uXQ N _ J H I Q Q 1.F C.3.C.4.,X,X_.).).L.( ^.K r e.A e.A ! t.t.t.3.Y.m.P.d n n 1 B 1 B g g B ",
"T / - v.  r.a.&.A r e @.a a a l I { h N h h h H N N N h { u h N 1.F 4.4.F oX6.} J r e.#.r #.B.t.{.Z wXuX'.B # # @ t $ @ *.*.B g ",
"T - % $ G d nXC s.r M.g.a a a l Q tX' ' W ' [ W W E h ' [ N H I 1.I Q l uXOX>XXXJ B.e.A e.e.#.#.A t.<XT P.d y 1 # @ @ k k k X.< ",
"O.$ + t @ G # 1 ^.N.Q e a :.a N @.@.h E W E gXgXM.0.E E :.N.M.N.I +Xa e N.VXhX8.A 1.#.#.r r r r B.e.<X^.BXr.*.y y y + =.=.k k + ",
"O.O O @ B + - d rX^.>XN @.7 :._ :.{ h E _ e e M.G.G.e M.G.e H.M.e g.j.H.G.U.>XF.r e.#.r r r r r I <XQ &.r.d y *.y y # # y 1 1 y ",
") 5 y @ B y @ a.r.C &.=.q.h J h h ' h h @.@.0.0.e g.e M.e e G.G.j.:.e G.0.4.].K e.>.B.#.e.#.e.%.A <X^.BXK.g g 1 1 B G G G G B 1 ",
"6 3 X.D f - - f $ > V ,.S.4 c.` ` c qXc b.c E { gXs w w gX] w s s q ] ] w E ~ m.W B.^ $.^ ^ u [ B.s.} + k.k.k f i.i.i.i.i.X 3 X ",
"X   % o o 8 8 p p Y X , & ; p.7.p.i 7.7.o.7.sX+.+.q q b.b.b.sXsXsXsXq c l.s [ s. X` $.+.u (.` [.[ XXv.2 9 . 9 . ; ; 9 ; 9 v.; ; ",
"  @ % o 8 8 o 8 p  .o 2 2 X   2 , ; ; V p.i GX7.m b.|.|.|.b.sXA.l.q q s gXW 0.uX>Xm.w.& F., z u XXC M   o o X > Y S > : : 2 X o ",
"Y = = 8 p S S S p p  .,  ., . ; * o S 8 8 2 9 V p.p.i m S.c.w +.9.+.s ] E ' G.{ yXyX( hXW u 0 j } M )   Y >   >   =   k.X X > X ",
"4 x  .8 p % ) = S 8 8 o  ., , & 6 & 6 ; * * ; & & & ; V V V p.m | b.l.c s +.9.9.E >.0 #Xh ;.w.m.M S   > > > X > > >   % O   8 X ",
"z z - p S = # t = 8 o . , . . ; i 9 ; & 6 6 m 6 m 6 6 6 & & & V p.p.p.p.p.p.p.V , , j m.} } *X= S 8 8 X X X X >     O O 5 5 Y Y ",
": * | z.3 > f > o , ,  . .2 , , & . : . , 4 & S.m m i 7.m m & & 6 m ; & 6 V ; ,.} } m.C K S Y 8 > 8 2 o X X X X 5     > > X D 3 ",
"| z A.| c.| S.S.* 6 , , & ; 6 m i m 6 S.S.m A.A.m A.m m m A.A.A.i i i i A.m & & * 6 ; : 2 9 * . v.. 9 . v.. * * : 4 | | c.| | | ",
"o.o.U U P P P U o.o.o.o.o.U U U P U U P P P P P P P P U P P P P P P U o.U U o.7.o.U U U o.U o.7.i & m 7.o.7.o.o.7.i 7.7.i 7.i i "
};
