/* XPM */
static char *eac34cbaefc940efcdc1e7756ea2f7d3rtzCncVHRGOeVI5v[] = {
/* columns rows colors chars-per-pixel */
"64 64 256 2 ",
"   c #432015",
".  c #50291B",
"X  c #492619",
"o  c #573020",
"O  c #401D11",
"+  c #4C281A",
"@  c #6C3B24",
"#  c #552E1F",
"$  c #683B27",
"%  c #6C3D28",
"&  c #78452C",
"*  c #744129",
"=  c #633623",
"-  c #432317",
";  c #6D3F2A",
":  c #5C3523",
">  c #462518",
",  c #532C1D",
"<  c #5C3221",
"1  c #663925",
"2  c #482317",
"3  c #603422",
"4  c #592C1B",
"5  c #6F422C",
"6  c #683723",
"7  c #3B1A10",
"8  c #814524",
"9  c #502D1F",
"0  c #874926",
"q  c #35180F",
"w  c #603725",
"e  c #723F28",
"r  c #4B2416",
"t  c #65351F",
"y  c #482115",
"u  c #4F2618",
"i  c #79472E",
"p  c #925334",
"a  c #3B1C13",
"s  c #864623",
"d  c #985128",
"f  c #773E23",
"g  c #240C07",
"h  c #4D2A1C",
"j  c #5B2E1D",
"k  c #3D1F15",
"l  c #73432C",
"z  c #A2582A",
"x  c #61311D",
"c  c #9D572D",
"v  c #573322",
"b  c #9C552B",
"n  c #6D3820",
"m  c #532A19",
"M  c #703D24",
"N  c #6A351F",
"B  c #8B4C27",
"V  c #A75B2C",
"C  c #510841",
"Z  c #8F4E2A",
"A  c #77432C",
"S  c #7B4930",
"D  c #5E2D1B",
"F  c #824C30",
"G  c #4E0E39",
"H  c #895231",
"J  c #6A3924",
"K  c #572A19",
"L  c #52103B",
"P  c #481031",
"I  c #93512C",
"U  c #633A27",
"Y  c #9E7202",
"T  c #522719",
"R  c #521936",
"E  c #420B2D",
"W  c #4F1335",
"Q  c #794126",
"!  c #B2602E",
"~  c #B26332",
"^  c #693D28",
"/  c #2E140D",
"(  c #460934",
")  c #561240",
"_  c #8A4F2F",
"`  c #723A23",
"'  c #AB5E2E",
"]  c #49073A",
"[  c #B33A96",
"{  c #BA8C01",
"}  c #B73D9D",
"|  c #653020",
" . c #7C4020",
".. c #904A25",
"X. c #B76735",
"o. c #4A0C34",
"O. c #5B1145",
"+. c #29100A",
"@. c #C39300",
"#. c #7C472E",
"$. c #CA42AF",
"%. c #CF41B9",
"&. c #A27801",
"*. c #84462C",
"=. c #A6338E",
"-. c #C83DB2",
";. c #C03CAA",
":. c #834F33",
">. c #A46038",
",. c #AA6233",
"<. c #992A83",
"1. c #66194E",
"2. c #65331E",
"3. c #7D4C32",
"4. c #7D4529",
"5. c #905736",
"6. c #896105",
"7. c #C16A31",
"8. c #7D4321",
"9. c #C67038",
"0. c #A77A04",
"q. c #B18202",
"w. c #BB37AA",
"e. c #802365",
"r. c #CB9A00",
"t. c #C441A9",
"y. c #601D43",
"u. c #3D072D",
"i. c #6E2053",
"p. c #74452E",
"a. c #7E482D",
"s. c #95552B",
"d. c #BC6630",
"f. c #AB7F03",
"g. c #60114C",
"h. c #5A1840",
"j. c #814A2D",
"k. c #591C33",
"l. c #3E0F24",
"z. c #50182D",
"x. c #C69600",
"c. c #782060",
"v. c #B6389F",
"b. c #9C377A",
"n. c #7B2A5C",
"m. c #AD3298",
"M. c #A05B36",
"N. c #C66D33",
"B. c #AC8201",
"V. c #916706",
"C. c #B7642F",
"Z. c #834227",
"A. c #BC6A35",
"S. c #AE7B05",
"D. c #642A36",
"F. c #D83EC9",
"G. c #C83ABA",
"H. c #633C29",
"J. c #764830",
"K. c #87246D",
"L. c #972E7D",
"P. c #B533A4",
"I. c #D642C3",
"U. c #9B5A34",
"Y. c #CD7336",
"T. c #4C1B24",
"R. c #6D2C37",
"E. c #902679",
"W. c #5A232D",
"Q. c #6F175A",
"!. c #48152B",
"~. c #9E3286",
"^. c #862E67",
"/. c #D03CC1",
"(. c #B44293",
"). c #6F284F",
"_. c #1B0A07",
"`. c #612A26",
"'. c #8D2E70",
"]. c #AB3D86",
"[. c #81580B",
"{. c #7F3C34",
"}. c #B3663C",
"|. c #B58702",
" X c #AB3892",
".X c #773735",
"XX c #DB47C3",
"oX c #A53886",
"OX c #93346F",
"+X c #973D6C",
"@X c #946E02",
"#X c #71332B",
"$X c #E243CF",
"%X c #531E29",
"&X c #82335C",
"*X c #C98E02",
"=X c #653E2B",
"-X c #A62892",
";X c #9B486D",
":X c #612339",
">X c #672241",
",X c #BE8507",
"<X c #B77818",
"1X c #AC5755",
"2X c #D44ABA",
"3X c #C447A2",
"4X c #9D621B",
"5X c #C041A6",
"6X c #C68608",
"7X c #32130C",
"8X c #E4803C",
"9X c #D1773B",
"0X c #BE6F3B",
"qX c #7F4138",
"wX c #9F523C",
"eX c #926014",
"rX c #8B4735",
"tX c #7B1868",
"yX c #9C6C0C",
"uX c #ED47DB",
"iX c #A33E78",
"pX c #CC4CA7",
"aX c #AB496B",
"sX c #A79781",
"dX c #AF6C1D",
"fX c #9F8D78",
"gX c #673F12",
"hX c #78500E",
"jX c #A27410",
"kX c #8A1B78",
"lX c #843D4B",
"zX c #D3C5A6",
"xX c #BD7D07",
"cX c #984752",
"vX c #BF5573",
"bX c #D3A1AC",
"nX c #9C8575",
"mX c #825945",
"MX c #F2883F",
"NX c #BA6A46",
"BX c #914C3C",
"VX c #6E354C",
"CX c #913C62",
"ZX c #B94789",
"AX c #6E494C",
"SX c #EC843B",
"DX c #BE6C9F",
"FX c #90676F",
"GX c #D968BB",
"HX c #D181AF",
"JX c #C4909F",
"KX c #917462",
"LX c #F68E46",
"PX c #926E72",
"IX c #AB6B89",
"UX c #CF831B",
/* pixels */
"> v v v w w J M @ t 6 M n J n 6 % ^ U U w < 3 j j o . , m v 9 m + o . X - X X > h X X + h + + + , h o , 9 h > + X > > - - O 2 r ",
"j j j D K j D D 4 D x ` ` D | J ; % % 5 l t N n 2.j K m m < : < Q 0XU.M 9 k k > 9 h 9 o 9 X . + + . 2 2 r 2 2 u , r + u 2 y 2 u ",
"2.| t 2.t j 4 x D D x N M N t e J.i 4.p.p.5 $ = : $ ; $ : : ^ _ 9.MX8X,.H H.: v : : H.5 U U ^ ^ % * J = @ 6 x 4 6 j = @ x x m j ",
"f M ` 2.$ M *.Q *.*.Q M Q *.F F i F Z I Q * & a.* 5 $ H.H.: H >.,.7.~ >.>.H H.=X=XU =X5 5 l p.5 5 A #.& M e = m = K 4 J 2.x 4 j ",
"a.4.* M f I M.I Z M.>.p Z I 0 5.p 5._ H :.j.j.j.a.F i 5 5 F U.>.p qXp ~ ~ >.i J.3.J.J.S 3.5 3.S S S F i * A * = 1 3 < J n n | K ",
"F H #.A a.p >.M.p p 5.5.M.U.H H H 5.5.5.H F S #.i S 3.J.U.X.~ lXy.y.R.,.A.X.j.J.S 3.S 3.3.; 5 S S A #.i S F S l % e @ M 6 n 6 x ",
"3.i i % p U.p M.>.>.M.H H p _ 5._ a.4.F 5.H a.S S 3.S p X.0X>.) ^.;X:XwX9.A.:.p.i p.l J.l w % p.% 5 F S S i A i % * e % = $ = 3 ",
":.:.J.+ * >.>.p p p >.U.5.U._ H >.5.:.H F :.:.H 5.5.5.A.9.0XR.c.pXpXn.{.9.Y.,.S 3.p.l S 5 p.i p.; p.:.& F & :.i % & * A ; l @ 2.",
"mXmX:.^ ; _ p I 5.p _ _ 5.p p }.LX9.* S * F F H :.S >.9.Y.BXg.(.2XXXm.R.A.9.A.F i 3.F F i #.& p NXU.3.F :.i S ; % l l S S 3.A t ",
"5 p.5 ^ ; 5 ; & * * Q 4.@ = % _ N.C.@ < < < < w < 3 s.z d R i.b.'.oX~.h.*.d I e o 3 : o o < o I Y.B # w o o o o o # h # # < o , ",
"^ U U : w H.U ; ; = = = 3 j 3 m J ..8 2 X . + . + n d z {.L L.=.h.i.=.O.y x N m   k a a     2 n  .r   >   X > -   2 -     X X 2 ",
"U H.H.=XU H.$ 1 3 = ^ = < T # # . j 8 K   + . + X x 8.B k.g.} E.( O.;.E.T.0 s f . > - > X h 8 B 3 - + > > X h + X X h X X X 2   ",
"= 1 ^ ; U = ; $ 3 3 1 1 4 u , # 2 # 0 Q - k q +.> 8 B Z.o.'.[ 1.( L =.=.R *.0 8 . X 2 2 X 6 8 @   > + X h X h + X h + 9 o , . + ",
"3 $ J x j j t ^ t | D ; 6 4 r , m # Q B   _.a t s I Z D.O. XL.G G G ~.v.) #Xd 0 t + . X M Z Q . X + h h h h , # , o o o o , . + ",
"3 w x K m T K < j 4 K < 4 y y T < X t 8.a x b b I V b z.K.t.c.o.L E L.w.O.k.Z 0 8 4 X @ 0 f + + h 9 > - X h # 9 h , , . . h . . ",
"T o j m u 2 r . . m T u T r K u u X 4 m r s 0  .8 f D.y.=.L.W ( G P '.w.O.E {.Z 8 4 x 8 2.k k - k X + X > X X + + . + . , . , . ",
"D K T T u y m 4 r 2   O u u u y   x 2./ t Z B *.:XP u.K.t.b.y.W l.l.i.v.1.E `.s s 0 B 8.+ X X h + m m . . . # , , h , , # m . . ",
"u u x 2.` Z. .0 d 0  .N s s  .t f d s / M j.D.( ( i.E.w.%.-.;.[ +XVX+X-.e.P D.F c c Z a.Q 4.Q Q *.0 0 8 B B 0 4.B B 4.* < o o # ",
"  u c 9.z s s 8.z V s ` 8 s ..d Z 0 f X W.G u.i.v.I.F./.G././.I.I.XX%.%.~.!.z.D.A 8 8 d d I b b b c z z V z z V V c }.9Xj.o : : ",
"T M 9X8X9.B 8.` ` Z *. . .Z.s 0 B B *.R ( G ~.I.F.P.L.&XCX+X+X+X Xv.;.G.%.(.).P W 6 p p p p p p p p BXrXrXqXqXqX{.I 8XSX~ < 3 : ",
"u t V C.b | k.h.W R k.%X%XT.W.`.`.6 W.E 1.P./.m.CXH 6.0.|.q.B.f.jX5._ ]./.F.2XOXR R k.R R R R R W W P P P P W G ( #X' ' M h + > ",
"4 4 Z 8 8 | L Q.E.E.<.=.~.n.).n.).1.L ).} w.+XV.{ r.r.r.x.@.x.x.@.{ q.jX1X;.F.I.} '.c.e.e.n.^.^.^.n.n.&X^.n.R o.#XZ 8 0 v h < o ",
"4 2 e Z 8 8 L Q.P.;.m.;.%.-.-.I.t. X~.5XG.cXf.@.r.x.r.x.x.x.@.@.@.@.@.q.Y [.+Xw.;.}  X} t.5X5X$.-.-.-.I.$X[ L W I c s.; v 9 9 X ",
"x = N V ~ ,..XO.tXw.~.i.1.i.c.e.<.=.v.G.+XS.@.x.r.x.r.@.|.B.&.&.B.B.B.B.f.{ |.vX/./.[ ^.'.^.c.i.1.h.~.;.=.g.P f s.Z $ 9 o < # , ",
"3 1 3 Z ,.,._ W ) E.} n.P R W W ) y.b.oXyX{ |.{ { |.B.f.&.&.&.&.&.0.&.f.q.B.q.S.iXP.[ :X!.R W W E ).5X=.) !.` I I f # # , , # o ",
"J @ l _ X.C.z D.L c.;.$.^.] O.) ] >X} 1Xr.x.x.{ x.r.q.eXF F & #.F H eXyXY q.@.r.<X;.F.} R C L ( Q.t.v.g.P rXb d 0 , < # , X . < ",
"l i 3.3.>.}.X.z z.G K.-.$.i.] C G  Xv.dXr.r.@.f.0.s.:XG ] ] ] ] ] L h..XH yX@.r.@.}.-.I.^.( ( c.-.-.1.E ` b b z 6 < 3 o < j # o ",
"l J.& 3.i z b z #XP W =.G.5XQ.u.e./.aX6X*X{ 0._ y.] g.e.<.<.<.K.tXg.C G h.R.s.{ { *XvX-.3Xy.1.;.-.c.o.#XV b b @ o < < = 6 6 = = ",
"2.% @ 6 = Q V .. .z.o.>Xv.%.[ n.} ;.dX*Xq.eXR.C g.L.t.I.XX-.w.%.$X-.m.E.Q.) G .Xq.*X<XZX%.(.} $.^.W D.c c c * , < : 3 = 6 J @ % ",
"l % 6 M & & ,.C.z s L W OX$.$.3XXXZXxX6XH h.C <.-.t.I.F.<.C G g.~.%.%.2X$.m.n.) *.*X{ 1X%.%.$.b.h.k.b U.V p w $ H.U U U ^ = $ ; ",
"l J 3 6 M ; :.~ V d .XL >XoX;.t.%.vXUX4X] C -XGXbXDXF.w.C L h.L 1.(.[ JXbXGX2XE.G _ ,X}./.%.b.y.W rX' z V * w ; : : ^ ; p.5 ; 5 ",
"N 6 % 5 1 p.i *.' V b R.L i.[ %.$.vX}.) Q.m.HXzXzXbXuXm.] O.O.) g.5X} bXzXzXHX$.e.h.4X0X/.t.).R .XX.X.X.:.p.; p.l p.5 5 p.l ; ; ",
"= 4 j H.v ; $ # M I B f z.l.i.=.~.CXR E e.;XfXfXsXJXP.<.( ( o.E ) L.OXnXnXfXfXIX'.) `.cXm.L.G l.J 0 8.t > h h 9 , v o X + + X h ",
", 4 , 4 w H.=XU 9 Q I b 8 !.E '. XOX%XP G R AXKXKXsXDXP.e.o.( g.<.E.FXsXnXfXfXmXy.o.l.c.m.c.u.l.m 4 4 O k   - a q q q q a   - > ",
"< : < 3 < w v v o = B B b Z.!.).m.].8 D z.E E R D.AXPX Xm.=.E.~.<.;XsXnXFXAXVXP u.!.x OXm.i.u.T.M  .M + - k a k a   - > > - k a ",
"^ l 1 1 < < h h h   Z V b B !.i.w.} 4XY V.8.W.E u.u.E G ) g.1.O.G P P ( E E l.K gX[.eXiXP.y.u.T.t 2.j k   > X > -   k k a q q q ",
"# w w $ % ; $ h a _.a d ~ ~ | z.b.G.wXf.B.Y V.hXx %Xl.u.u.l.l.l.l.y D gXhX6.V.Y 0.0.yXb.<.W u.T N n 4 a k k   a k     - 2 2 > X ",
"1 w w : U ; 5 : q _._.t ' ! *.!.n.G.aX&.q.q.0.&.@X6.[.gX: 2 T.v hX6.@X&.Y f.&.@XY Y eX=.<.( E 2.8 8 f  .Q t t o X - + X X X - - ",
"D x 3 = = 1 U 1 o k a 8 d I f l.y.w.} 4X&.|.|.f.&.Y @XV.[.T T.gX[.6.6.6.V.Y @XV.V.Y s.w.K.E z.f 0 s 8.B Z 0 0 Z f Q ,.j.a -   k ",
"x < j w : J _ M.c 8 @ b ..8 n T.!.K.P.;XY q.q.B.f.f.@XV.6.x !.hX6.6.[.[.6.6.6.V.S.Y iXG.Q.E `.f 4.@ > . @ 8 s Z 0 z Y.B > + > - ",
"= 1 l ,.0X}.}.,.s.I @ 4.! z z s R ) K.w.1X{ x.@.{ { B.&.V.`.z.6.&.jXjXY Y Y &.,X*XNXI.-.>Xk.*.c U.S ^ % ; % % % ^ @ a.1 = 3 3 3 ",
"f N F 8XSXX.p j.l * 1 = ~ d.d.! k.( ( =.5XNX{ { @.x.{ 0.6.W.k.V.S.0.f.S.q.f.,X*X<X$.$X].W.y.M.X.M.p.5 ; $ e % ^ % % 1 ; $ 1 = = ",
"@ t t I c p.1 % 1 * 1 0 ' ' C.*.( g.~.oXv.w.M.f.{ @.@.{ Y W.W.yX0.S.0.f.0.S.6X6X1X-.%.[ y.h.BX,.' 4.$ % 1 $ $ ^ ^ @ ; ; $ = 3 3 ",
"% $ = ; J.J.^ e 5 ^ ^ ~ ! V ! D.( L.-.'.). Xm.aX<Xq.|.{ Y T.%X@XY 0.0.0.S.,X6X' (.t.t.$.n.L {.,.~ _ U ; 5 ; ; ; % ^ ^ % U 1 1 U ",
"6 t $ 1 1 J.p.5 5 = * ! ' ! *.o.O.v.=.O.] i.].w.aXdXS.,XdX:X#XY Y S.S.S.,X<Xc ;X} ].b.t.b.L >X,.,.M.; ^ 5 ; $ 1 ^ w = w w w < w ",
"n @ @ % ; 5 i l * t c d.! ! D.( e.v.'.G G ( 1. Xm.lX[.4Xd s z xXxX6XxX<XdX1X(.5X].n.O.[ [ h.L b ~ ' l $ 1 $ 1 $ @ 1 = $ $ 1 = w ",
"& a.* A :.i & * 5 * d.Y.N.d W O.[ [ h.G L C c.[ OX=.b.lXlXcXcXs.4X,.wXaX3X2XXXoXy.C C <.2X&XR wXA.~ _ % i & l * * * * % ; e e % ",
"& * e @ * & j.a.% Z N.7.d.{.o.K.t.K.o.o.g.<.$.[ VX&X[ ].} ;.} ].(.} (. X$.%.3XiX1.L G c.t.;XW.{.X.X.V M l A i & i & e % $ $ $ ^ ",
"n | N 6 e Q 1 > . Z ! 7.7.D.O.} [ L L e.[ $.L.1.O.L ) i.&XOXOXb.oXb.&X).n.=.t.pX(.iXy.O.;.ZXD.>XX.N.A.#.5 & & A #.& * l & i ; ^ ",
"e | N 6 # = < 9 u  .! N.! ) K.XX[ e.oX$. Xe.) ] G k.W ] o.P P P W P G W P O.tX(.pX3X].c.-.pX).h.~ 9.A.:.J.i & & & A i A & 3.:.a.",
"#.2.| X : & #.% * d.N.9XrXC v.$XXXt.v.L.1.o.( k...b s #X| | N n Z...d c Z N !.1.oX5X3X3XI.XX&XG p A.X._ 5 5 % ; % $ 1 $ % @ i S ",
"4.N N 6 A #.* & s.A.d.N.R.tXuXuX$X<.1.G E z.`.s Z...b ..s z V V ! d.C.C.X.~ 8 z.C K.[ $.I.$Xb.o.{.N.A.M.p.A * A e J J J @ J ; 5 ",
"S N e @ ` & 6 % c ' C.wXO.-X$X-XQ.C G k.`... . .V ..s d ! 7.! d.7.N.C.' ~ ~ ' b W.L Q.<.F.uX%.) .X7.A.~ F #.M * e M M @ @ % $ ^ ",
"J.@ N M a.e | f ! N.N..Xg.kXQ.] o.R.Z...! ! d.C.d n ` f ..' 7.V d Z 4.Q c 9.X.7.~ *.R C kXF.uXK.R.9.Y.X.a.S & e A & e e e l l % ",
"^ ^ Q n *.Z.` b Y.9.C.k.C C ] R...z 7.! d.d.d f N f ` N J 8 ' Z.6 e 4.3 x I X.~ d.V s..X] tXP.E.:XA.Y.7._ 3.3.& & #.& & p.& & l ",
"k v * j 2.6 t ..V d 8.T.E z.`.8.8 N f ` D x D x D K 4 K K n ..x T x x 4 T m 4.z V V b 8.` W ) h.R qXc s.; U ^ w < o o o < < o o ",
"o : < m . , x V V d f N |  .` D N 4 y / +.+.7X  y y   O 7 O T O O O     a k - < 6 f f N B ` E ( P %X8.8 < - - > k k k k - X k k ",
": U < m 4 T Q 9.9Xz ..s s s s n D r y y   7 q / q 7 7 q q 7 y   2 k   - X , # : : t 0 8 d d Z.%Xz.` s.c 8.+ o o # o o , + + # h ",
", w 3 4 j , c MX8X7...f  .D T O   u K T T u r y   O 7 7 7 T I f r y   u # j j # : : , @ s.' c d Z.' 9X~ B v v o : : : w o # o # ",
"X T 4 K j < e 7.N...n K T y y   a O a O     O   O O O O a x ! s 7 O O   y 2 r y + : , h w 0 b b z 9.SXY.B # 9 o o o < : w o # o ",
"j m 3 o , U H.w = m u r y r r   q - k O O O 7 O 7 O a a O   n K 7 O y O O a     + h o o v : B b b 7.Y.' 1 9 o v v : H.=Xw v # 9 ",
"+ > + o # < 3 < m r r T m u y r O r r r r y y   7 7 q / 7 7 O 7 7 7 O O 7 O   k X + . # + h . @ 0 0 0 Q , 9 9 9 : v o o v o v 9 ",
"X h q > m 2       O r r   y O 7 q 7 O   O O 7 7 7 q 7 7 7 q 7 q q q q q q 7 O 7 k O k X + 2   - + X m . X + > X 9 h > X h X X > ",
"+.+.+.+.g g g +.7X7X7X7X/ +.+.+.g g +.g g g _._._.g g +.g g g g g g +.+.+.+./ / +.+.g +./ +.+./ q k q / / / / +./ q / / / / / / "
};
